# xmcd
#
# Track frame offsets:
#	150
#	22257
#	38378
#	52533
#	65214
#	83860
#	97672
#	108522
#	122083
#	148165
#	165968
#	186888
#	210138
#	226612
#	246378
#	262054
#	288330
#	299888
#
# Disc length: 4266 seconds
#
# Revision: 0
# Processed by: cddbd v1.5.1PL2 Copyright (c) Steve Scherf et al.
# Submitted via: dBpowerAMP V4.0
#
DISCID=fc10a812
DTITLE=Various Artist - Guitar Kings
DYEAR=1900
DGENRE=Blues
TTITLE0=Soul Sacrifice
TTITLE1=Its My Own Fault
TTITLE2=Little Wing
TTITLE3=Livin In The Blues
TTITLE4=Rock Steady Woman
TTITLE5=Jeffs Blues
TTITLE6=Miles Road
TTITLE7=Jingo
TTITLE8=Ridin On The L&N
TTITLE9=Hully Gully
TTITLE10=Roosevelt and Ira Lee
TTITLE11=Voodoo Chile
TTITLE12=Spread Your Wings
TTITLE13=A Kind Of Magic
TTITLE14=Another One Bites The Dust
TTITLE15=Radio Ga Ga
TTITLE16=Crazy Little Thing Called Love
TTITLE17=Bohemian Rhapsody
EXTD=
EXTT0=
EXTT1=
EXTT2=
EXTT3=
EXTT4=
EXTT5=
EXTT6=
EXTT7=
EXTT8=
EXTT9=
EXTT10=
EXTT11=
EXTT12=
EXTT13=
EXTT14=
EXTT15=
EXTT16=
EXTT17=
PLAYORDER=
